<?xml version="1.0" encoding="UTF-8" standalone="no"?><!-- Created with Inkscape (http://www.inkscape.org/) -->

<svg height="7.3781128mm"
    id="svg1"
    version="1.1"
    viewBox="0 0 21.847406 7.3781128"
    width="21.847406mm"
    xmlns="http://www.w3.org/2000/svg"
    xml:space="preserve"><defs
     id="defs1" />
    <g
        style="fill:#ffcc00"
        id="layer3"
        transform="translate(-43.444078,-21.350479)"><g
       id="g13"><g
         id="g11"><path
           style="stroke-width:0.269529"
           d="m 61.77513,21.350479 h 0.368889 c 0.171964,0 0.326504,0.139195 0.310404,0.310404 l -0.184444,1.961403 c -0.0161,0.171209 -0.13844,0.310405 -0.310404,0.310405 h -0.009 c -0.171964,0 -0.295084,-0.139125 -0.310405,-0.310405 l -0.175446,-1.961403 c -0.01532,-0.17128 0.138441,-0.310404 0.310406,-0.310404 z"
           id="rect5" /><path
        style="stroke-width:0.269529"
        d="m 65.064721,23.046716 0.183654,0.319923 c 0.08561,0.149137 0.04184,0.352462 -0.114663,0.423737 l -1.792871,0.816539 c -0.156498,0.07127 -0.338125,0.03447 -0.423738,-0.114663 l -0.0045,-0.0078 c -0.08561,-0.149138 -0.02625,-0.325179 0.114664,-0.423739 l 1.613697,-1.128657 c 0.140917,-0.09856 0.338124,-0.03447 0.423738,0.114665 z"
        id="path7" /><path
        style="stroke-width:0.269529"
        d="m 65.235892,26.735453 -0.185179,0.319043 c -0.08633,0.148724 -0.284284,0.212515 -0.424279,0.112641 l -1.603778,-1.144124 c -0.139988,-0.09987 -0.198962,-0.275555 -0.112642,-0.424279 l 0.0045,-0.0078 c 0.08633,-0.148725 0.268456,-0.18537 0.424281,-0.112642 l 1.784439,0.832864 c 0.155827,0.07273 0.198962,0.275555 0.11264,0.424281 z"
        id="path8" /><path
        style="stroke-width:0.269529"
        d="m 62.142388,28.727865 -0.368889,7.26e-4 c -0.171964,3.32e-4 -0.32678,-0.138546 -0.311015,-0.309791 l 0.18058,-1.961763 c 0.01576,-0.171237 0.137832,-0.310675 0.309791,-0.311016 l 0.009,-4.1e-5 c 0.171964,-3.33e-4 0.295357,0.138545 0.311016,0.309792 l 0.17931,1.961054 c 0.01566,0.17125 -0.137832,0.310675 -0.309794,0.311015 z"
        id="path9" /><path
        style="stroke-width:0.269529"
        d="m 58.863909,27.060385 -0.186576,-0.318228 c -0.08697,-0.14835 -0.04507,-0.352064 0.110777,-0.424769 l 1.785318,-0.832924 c 0.155834,-0.07271 0.337795,-0.03757 0.42477,0.110776 l 0.0046,0.0078 c 0.08697,0.14835 0.02923,0.324925 -0.110777,0.424771 L 59.2887,27.171152 c -0.140007,0.09985 -0.337795,0.03757 -0.424771,-0.11078 z"
        id="path10" /><path
        style="stroke-width:0.269529"
        d="m 58.660931,23.369481 0.182628,-0.32051 c 0.08514,-0.149407 0.282577,-0.214779 0.423366,-0.116022 l 1.612855,1.131292 c 0.140786,0.09874 0.201158,0.273957 0.116024,0.423367 l -0.0045,0.0079 c -0.08514,0.149407 -0.266967,0.187508 -0.423368,0.116024 l -1.791,-0.818649 c -0.156404,-0.07148 -0.201158,-0.273957 -0.116021,-0.42337 z"
        id="path11" /></g><text
        style="font-size:6.35px;font-family:sans-serif;-inkscape-font-specification:'sans-serif, Normal';text-align:end;text-anchor:end;fill:#ffcc00;fill-opacity:1;stroke:none;stroke-width:0.264583"
        id="text11"
        x="57.114563"
        y="27.459614"
        xml:space="preserve"><tspan
           style="font-style:italic;font-variant:normal;font-weight:normal;font-stretch:normal;font-size:6.35px;font-family:Verdana;-inkscape-font-specification:'Verdana Italic';fill:#ffffff;stroke-width:0.264583"
           id="tspan11"
           x="57.114563"
           y="27.459614">diler</tspan></text></g></g></svg>
